<?xml version="1.0" encoding="UTF-8"?>
<svg xmlns="http://www.w3.org/2000/svg" width="732.5499" height="336.69995" viewBox="0 0 209.3 96.2">
  <g>
    <path d="m139.5,64.7 l-5.4,-6.8h-6.1c-0.2,0 -0.4,0.3 -0.2,0.5l7.8,9.8c-3.3,2.3 -7.4,3.5 -12.2,3.5 -13.1,0 -21.6,-9.5 -21.6,-24.1s8.5,-24.1 21.6,-24.1 21.6,9.5 21.6,24.1c-0.1,7.1 -2,13 -5.5,17.1m10.8,-17c0,-17.8 -10.8,-29.8 -26.9,-29.8s-26.9,12 -26.9,29.8 10.8,29.8 26.9,29.8c6.1,0 11.4,-1.7 15.7,-4.8l2.5,3.2h6.1c0.3,0 0.4,-0.3 0.2,-0.5l-4.9,-6.3c4.6,-5.1 7.3,-12.6 7.3,-21.4zM198.5,64.7 L193.1,57.9h-6.1c-0.2,0 -0.4,0.3 -0.2,0.5l7.8,9.8c-3.3,2.3 -7.4,3.5 -12.2,3.5 -13.1,0 -21.6,-9.5 -21.6,-24.1s8.5,-24.1 21.6,-24.1 21.6,9.5 21.6,24.1c0,7.1 -2,13 -5.5,17.1m10.8,-17c0,-17.8 -10.8,-29.8 -26.9,-29.8s-26.9,12 -26.9,29.8 10.8,29.8 26.9,29.8c6.1,0 11.4,-1.7 15.7,-4.8l2.5,3.2h6.1c0.3,0 0.4,-0.3 0.2,-0.5l-4.9,-6.3c4.7,-5.1 7.3,-12.6 7.3,-21.4z" fill="#040000" />
    <path d="m41.4,94.3c-8.3,0 -15.9,-2.8 -20.9,-6.9 -2.5,0.7 -5.7,1.9 -7.7,3.4 -1.7,1.3 -1.5,2.6 -1.2,3.1 1.4,2.3 23.4,1.5 29.8,0.8z" fill="#F1A81A" />
    <path d="m41.4,94.3c8.3,0 15.9,-2.8 20.9,-6.9 2.5,0.7 5.7,1.9 7.7,3.4 1.7,1.3 1.5,2.6 1.2,3.1 -1.4,2.3 -23.4,1.5 -29.8,0.8z" fill="#F1A81A" />
    <path d="m41.5,44.5c13.7,-0.1 24.7,-2.7 28.5,-3.8 0.9,-0.2 1.4,-0.7 1.4,-0.7 0,-0.1 0.1,-2.2 0.1,-3.3 0,-18.3 -8.7,-36.7 -29.9,-36.7 -21.3,0 -29.9,18.4 -29.9,36.7 0,1.1 0.1,3.2 0.1,3.3 0,0 0.4,0.4 1.1,0.6 3.4,1 14.6,3.7 28.7,3.8h-0.1zM78.8,59.8c-0.9,-2.7 -2,-5.9 -3.2,-9 0,0 -0.7,-0.1 -1,0 -10.6,3.1 -23.3,5 -33.1,4.9h-0.1c-9.7,0.1 -22.4,-1.8 -32.9,-4.8 -0.4,-0.1 -1.2,-0.1 -1.2,-0.1 -1.2,3.1 -2.3,6.3 -3.2,9 -4.1,13.1 -2.7,18.5 -1.7,18.6 2.1,0.3 8.4,-9.8 8.4,-9.8 0,10.3 9.3,26 30.5,26.1h0.6c21.2,-0.1 30.5,-15.9 30.5,-26.1 0,0 6.2,10.1 8.4,9.8 0.7,-0.2 2.1,-5.6 -2,-18.6" fill="#040000" />
    <path d="m33.9,27c-2.9,0.1 -5.4,-3.2 -5.5,-7.3 -0.2,-4.2 2.1,-7.7 4.9,-7.8 2.9,-0.1 5.3,3.2 5.5,7.3 0.2,4.2 -2,7.7 -4.9,7.8m20.6,-7.3c-0.2,4.2 -2.6,7.5 -5.5,7.3 -2.9,-0.1 -5.1,-3.6 -4.9,-7.8s2.6,-7.5 5.5,-7.3c2.9,0.1 5.1,3.6 4.9,7.8" fill="#FFFFFF" />
    <path d="m59.7,32.9c-0.8,-1.7 -8.5,-3.6 -18.2,-3.6h-0.1c-9.6,0 -17.4,1.9 -18.2,3.6 0,0.1 -0.1,0.2 -0.1,0.2 0,0.1 0,0.2 0.1,0.3 0.6,0.9 9.3,5.6 18.1,5.6h0.1c8.8,0 17.5,-4.7 18.1,-5.6 0.1,-0.1 0.1,-0.2 0.1,-0.3 0.1,0 0.1,-0.1 0.1,-0.2" fill="#F1A81A" />
    <path d="m37.4,19.8c0.1,1.7 -0.8,3.1 -2,3.3s-2.4,-1 -2.5,-2.7 0.8,-3.1 2,-3.3c1.3,-0.2 2.4,1 2.5,2.7m8,0.5c0.3,-0.5 2,-2.9 5.6,-2 0.9,0.2 1.4,0.6 1.5,0.7 0.1,0.2 0.2,0.5 0,0.9 -0.3,0.7 -0.8,0.7 -1.2,0.6 -0.2,-0.1 -2.7,-1.8 -5,0.7 -0.2,0.2 -0.4,0.2 -0.7,0s-0.4,-0.6 -0.2,-0.9" fill="#040000" />
    <path d="m41.5,55.1h-0.1c-6.6,0.1 -14.7,-0.8 -22.5,-2.3 -0.7,3.9 -1.1,8.7 -0.7,14.5 0.9,14.6 9.6,23.8 23,23.9h0.6c13.4,-0.1 22.1,-9.3 23,-23.9 0.3,-5.8 -0.1,-10.6 -0.7,-14.5 -7.9,1.5 -16,2.4 -22.6,2.3" fill="#FFFFFF" />
    <path d="m22.6,53.8v14.4s6.6,1.3 13.2,0.4v-13.3c-4.2,-0.2 -8.7,-0.7 -13.2,-1.5" fill="#DC2728" />
    <path d="m71.3,40s-12.8,4 -29.8,4.2h-0.1c-17,-0.1 -29.8,-4.1 -29.8,-4.2l-4.3,10.7c10.7,3.2 24.1,5.3 34.1,5.2h0.1c10.1,0.1 23.4,-2 34.1,-5.2z" fill="#DC2728" />
  </g>
</svg>
